<svg xmlns="http://www.w3.org/2000/svg" viewBox="0 0 16 16"><defs><style>.cls-1{fill:#fff;}.cls-2{fill:#484280;}</style></defs><title>BLOCT-favicon-PurpleOnWhite</title><g id="Layer_2" data-name="Layer 2"><g id="Layer_1-2" data-name="Layer 1"><g id="BLOCT-favicon-PurpleOnWhite"><rect class="cls-1" x="0.5" y="0.5" width="15" height="15"/><path class="cls-2" d="M15,1V15H1V1H15m1-1H0V16H16V0Z"/><path class="cls-2" d="M13.65,8.59A2.18,2.18,0,0,1,14,9.81a2.1,2.1,0,0,1-.61,1.62,2.47,2.47,0,0,1-1.75.57H8V4h3.58a2.52,2.52,0,0,1,1.69.53,1.94,1.94,0,0,1,.61,1.55,2.1,2.1,0,0,1-.32,1.18,1.57,1.57,0,0,1-.86.64A1.68,1.68,0,0,1,13.65,8.59ZM10.16,7.12H11A.64.64,0,0,0,11.46,7a.57.57,0,0,0,.14-.42.6.6,0,0,0-.14-.43A.64.64,0,0,0,11,6h-.86Zm1.45,2.74a.57.57,0,0,0,.14-.42.52.52,0,0,0-.59-.58h-1V10h1A.65.65,0,0,0,11.61,9.86Z"/><rect class="cls-2" x="1.9" y="5.95" width="1.52" height="1.73"/><rect class="cls-2" x="4.93" y="10.27" width="1.52" height="1.73"/><rect class="cls-2" x="4.55" y="4" width="2.27" height="2.59"/><rect class="cls-2" x="4.36" y="7.89" width="1.14" height="1.3"/></g></g></g></svg>