<svg xmlns="http://www.w3.org/2000/svg" viewBox="0 0 234.97 71.07"><defs><style>.cls-1{fill:none;}.cls-2{fill:#fff;}</style></defs><title>BLOCT-Logo-White</title><g id="Layer_2" data-name="Layer 2"><g id="Layer_1-2" data-name="Layer 1"><g id="BLOCT-Logo-White"><rect id="footprint" class="cls-1" width="234.97" height="71.07"/><g id="logo"><path class="cls-2" d="M78.49,38.45a9,9,0,0,1,1.86,5.62,9.16,9.16,0,0,1-3.22,7.51q-3.21,2.64-9.23,2.64H48.48v-37H67.37q5.66,0,8.9,2.46a8.45,8.45,0,0,1,3.24,7.17,8.68,8.68,0,0,1-1.7,5.47,8.08,8.08,0,0,1-4.52,3A8.78,8.78,0,0,1,78.49,38.45ZM60.1,31.62h4.5A3.6,3.6,0,0,0,66.93,31a2.39,2.39,0,0,0,.76-1.94,2.53,2.53,0,0,0-.76-2,3.48,3.48,0,0,0-2.33-.66H60.1Zm7.61,12.69a2.36,2.36,0,0,0,.76-2c0-1.78-1-2.66-3.08-2.66H60.1v5.23h5.29A3.7,3.7,0,0,0,67.71,44.31Z"/><path class="cls-2" d="M96.47,45.43h11.2v8.79H84.85v-37H96.47Z"/><path class="cls-2" d="M137.49,19a18.06,18.06,0,0,1,6.88,6.78,19,19,0,0,1,2.54,9.78,19.08,19.08,0,0,1-2.54,9.79,18.26,18.26,0,0,1-6.91,6.8,19.86,19.86,0,0,1-19.15,0,18.39,18.39,0,0,1-6.93-6.8,18.9,18.9,0,0,1-2.57-9.79,18.84,18.84,0,0,1,2.57-9.78A18.12,18.12,0,0,1,118.31,19a20.14,20.14,0,0,1,19.18,0Zm-15,10.52a9.06,9.06,0,0,0-1.88,6,9,9,0,0,0,1.88,6,7.57,7.57,0,0,0,10.73,0,9,9,0,0,0,1.88-6,9.06,9.06,0,0,0-1.88-6,7.57,7.57,0,0,0-10.73,0Z"/><path class="cls-2" d="M176.55,18.61a15.89,15.89,0,0,1,6.17,5.11,18.37,18.37,0,0,1,3.17,7.69H173.64a6.56,6.56,0,0,0-2.38-2.85,6.25,6.25,0,0,0-3.53-1,5.55,5.55,0,0,0-4.63,2.2,9.46,9.46,0,0,0-1.7,5.92,9.45,9.45,0,0,0,1.7,5.91,5.55,5.55,0,0,0,4.63,2.2,6.25,6.25,0,0,0,3.53-1,6.53,6.53,0,0,0,2.38-2.86h12.25a18.46,18.46,0,0,1-3.17,7.7,16,16,0,0,1-6.17,5.1,19.85,19.85,0,0,1-8.61,1.8,19.12,19.12,0,0,1-9.73-2.38,16,16,0,0,1-6.36-6.67,21,21,0,0,1-2.22-9.78,21,21,0,0,1,2.22-9.79,16,16,0,0,1,6.36-6.67,19.12,19.12,0,0,1,9.73-2.38A19.85,19.85,0,0,1,176.55,18.61Z"/><path class="cls-2" d="M218.48,17.17v9.21h-9.83V54.22H197V26.38H187.3V17.17Z"/><rect class="cls-2" x="16.48" y="26.2" width="8" height="8"/><rect class="cls-2" x="32.48" y="46.2" width="8" height="8"/><rect class="cls-2" x="30.48" y="17.2" width="12" height="12"/><rect class="cls-2" x="29.48" y="35.2" width="6" height="6"/></g></g></g></g></svg>